<?xml version="1.0" standalone="no"?>
<!DOCTYPE svg PUBLIC "-//W3C//DTD SVG 20010904//EN"
 "http://www.w3.org/TR/2001/REC-SVG-20010904/DTD/svg10.dtd">
<svg version="1.0" xmlns="http://www.w3.org/2000/svg"
 width="500.000000pt" height="500.000000pt" viewBox="0 0 500.000000 500.000000"
 preserveAspectRatio="xMidYMid meet">

<g transform="translate(0.000000,500.000000) scale(0.100000,-0.100000)"
fill="#000000" stroke="none">
<path d="M1600 2850 c0 -118 0 -120 23 -120 17 0 27 12 46 57 35 80 88 133
133 133 19 0 56 3 82 6 l46 7 0 -395 c0 -452 6 -425 -92 -437 -45 -5 -53 -9
-56 -28 l-3 -23 221 0 221 0 -3 22 c-2 18 -14 24 -62 33 -35 7 -65 19 -73 30
-10 15 -13 98 -13 408 l0 390 46 -7 c26 -3 63 -6 82 -6 44 0 94 -49 135 -133
20 -41 33 -57 47 -57 19 0 20 7 20 120 l0 120 -400 0 -400 0 0 -120z"/>
<path d="M2480 2950 c0 -14 9 -21 35 -26 19 -3 46 -15 60 -26 l25 -19 0 -370
c0 -356 -1 -370 -20 -389 -11 -11 -31 -20 -44 -20 -37 0 -56 -10 -56 -31 0
-18 11 -19 209 -19 241 0 328 13 427 61 82 40 164 120 198 193 57 121 57 289
0 417 -31 69 -116 154 -192 193 -97 49 -146 56 -404 56 -229 0 -238 -1 -238
-20z m497 -51 c102 -39 185 -144 213 -270 19 -84 9 -259 -19 -330 -29 -75 -88
-141 -150 -168 -99 -42 -232 -37 -266 12 -13 18 -15 76 -15 399 l0 378 90 0
c67 0 104 -5 147 -21z"/>
</g>
</svg>
